<svg xmlns="http://www.w3.org/2000/svg" xmlns:xlink="http://www.w3.org/1999/xlink" width="200" zoomAndPan="magnify" viewBox="0 0 150 149.999998" height="200" preserveAspectRatio="xMidYMid meet" version="1.0"><defs><g/><clipPath id="663ee10572"><path d="M 55 57.675781 L 59 57.675781 L 59 61 L 55 61 Z M 55 57.675781 " clip-rule="nonzero"/></clipPath><clipPath id="e6fe8d90d7"><path d="M 12 66 L 34 66 L 34 92.175781 L 12 92.175781 Z M 12 66 " clip-rule="nonzero"/></clipPath></defs><g clip-path="url(#663ee10572)"><path fill="#100f0d" d="M 58.40625 59.78125 C 58.605469 59.546875 58.527344 59.371094 58.15625 58.882812 C 58.113281 58.832031 58.078125 58.777344 58.035156 58.722656 C 57.96875 58.636719 57.640625 58.414062 57.515625 58.324219 L 57.402344 58.246094 C 57.320312 58.1875 57.242188 58.152344 57.175781 58.152344 C 57 58.152344 56.761719 58.34375 56.523438 58.550781 C 57.097656 59.027344 57.632812 59.5625 58.109375 60.125 Z M 58.339844 58.503906 C 58.664062 58.949219 59.171875 59.460938 58.691406 60.023438 L 58.097656 60.714844 C 57.476562 59.910156 56.71875 59.164062 55.9375 58.566406 C 56.371094 58.195312 56.753906 57.78125 57.175781 57.78125 C 57.320312 57.78125 57.46875 57.824219 57.625 57.941406 C 57.796875 58.066406 58.230469 58.351562 58.339844 58.503906 " fill-opacity="1" fill-rule="nonzero"/></g><path fill="#fbd862" d="M 58.15625 58.882812 C 58.527344 59.371094 58.605469 59.546875 58.40625 59.78125 L 58.109375 60.125 C 57.632812 59.5625 57.097656 59.027344 56.523438 58.550781 C 56.761719 58.34375 57 58.152344 57.175781 58.152344 C 57.242188 58.152344 57.320312 58.1875 57.402344 58.246094 L 57.515625 58.324219 C 57.640625 58.414062 57.96875 58.636719 58.035156 58.722656 C 58.078125 58.777344 58.113281 58.832031 58.15625 58.882812 " fill-opacity="1" fill-rule="nonzero"/><path fill="#100f0d" d="M 43.628906 74.957031 L 57.109375 61.15625 C 56.628906 60.570312 56.019531 59.96875 55.433594 59.5 C 51.574219 63.25 48.773438 65.957031 46.722656 67.941406 C 43.425781 71.132812 42.023438 72.488281 41.625 72.941406 C 42.128906 73.445312 42.511719 73.835938 42.824219 74.160156 C 43.175781 74.519531 43.46875 74.820312 43.628906 74.957031 Z M 57.613281 61.179688 L 43.800781 75.316406 C 43.757812 75.363281 43.714844 75.390625 43.660156 75.390625 C 43.414062 75.390625 42.96875 74.808594 41.230469 73.082031 C 40.984375 72.835938 40.457031 73.527344 55.40625 59.003906 C 56.191406 59.582031 57.03125 60.417969 57.613281 61.179688 " fill-opacity="1" fill-rule="nonzero"/><path fill="#fbd862" d="M 57.109375 61.15625 L 43.628906 74.957031 C 43.46875 74.820312 43.175781 74.519531 42.824219 74.160156 C 42.511719 73.835938 42.128906 73.445312 41.625 72.941406 C 42.023438 72.488281 43.425781 71.132812 46.722656 67.941406 C 48.773438 65.957031 51.574219 63.25 55.433594 59.5 C 56.019531 59.96875 56.628906 60.570312 57.109375 61.15625 " fill-opacity="1" fill-rule="nonzero"/><path fill="#100f0d" d="M 42.214844 75.953125 L 41.429688 75.175781 L 40.59375 74.34375 C 39.921875 75.214844 37.851562 77.78125 35.148438 80.042969 L 35.039062 80.132812 C 35.511719 80.527344 35.992188 81.003906 36.386719 81.472656 L 36.480469 81.363281 C 38.753906 78.675781 41.335938 76.625 42.214844 75.953125 Z M 42.671875 75.882812 C 42.734375 75.941406 42.726562 76.039062 42.660156 76.09375 C 42.027344 76.566406 39.234375 78.695312 36.765625 81.609375 C 36.871094 81.714844 36.96875 81.828125 37.058594 81.929688 L 36.546875 82.292969 C 35.996094 81.488281 35.003906 80.507812 34.199219 79.96875 L 34.578125 79.464844 C 34.683594 79.558594 34.792969 79.65625 34.902344 79.757812 C 37.835938 77.304688 39.980469 74.53125 40.453125 73.90625 C 40.488281 73.863281 40.523438 73.84375 40.554688 73.84375 C 40.613281 73.84375 40.671875 73.890625 40.726562 73.949219 C 40.792969 74.011719 42.609375 75.816406 42.671875 75.882812 " fill-opacity="1" fill-rule="nonzero"/><path fill="#fbd862" d="M 41.429688 75.175781 L 42.214844 75.953125 C 41.335938 76.625 38.753906 78.675781 36.480469 81.363281 L 36.386719 81.472656 C 35.992188 81.003906 35.511719 80.527344 35.039062 80.132812 L 35.148438 80.042969 C 37.851562 77.78125 39.921875 75.214844 40.59375 74.34375 L 41.429688 75.175781 " fill-opacity="1" fill-rule="nonzero"/><path fill="#100f0d" d="M 36.382812 82.417969 C 36.269531 82.5 36.101562 82.621094 36.097656 82.625 C 35.445312 81.894531 34.609375 81.0625 33.871094 80.417969 C 33.871094 80.417969 33.996094 80.246094 34.082031 80.140625 C 34.867188 80.652344 35.863281 81.636719 36.382812 82.417969 " fill-opacity="1" fill-rule="nonzero"/><path fill="#100f0d" d="M 34.289062 83.21875 C 34.5 82.917969 34.722656 82.632812 34.914062 82.398438 C 34.632812 82.105469 34.386719 81.863281 34.105469 81.597656 C 33.871094 81.785156 33.582031 82.007812 33.28125 82.214844 C 33.363281 82.511719 33.355469 82.855469 33.25 83.25 C 33.46875 83.195312 33.667969 83.167969 33.863281 83.167969 C 34.011719 83.167969 34.15625 83.179688 34.289062 83.21875 Z M 35.417969 82.378906 C 35.128906 82.722656 34.757812 83.195312 34.429688 83.679688 C 34.261719 83.578125 34.066406 83.542969 33.863281 83.542969 C 33.4375 83.542969 32.972656 83.714844 32.601562 83.894531 C 32.867188 83.339844 33.125 82.597656 32.816406 82.078125 C 33.304688 81.75 33.777344 81.382812 34.121094 81.09375 C 34.609375 81.554688 34.941406 81.878906 35.417969 82.378906 " fill-opacity="1" fill-rule="nonzero"/><path fill="#fbd862" d="M 34.914062 82.398438 C 34.722656 82.632812 34.5 82.917969 34.289062 83.21875 C 34.15625 83.179688 34.011719 83.167969 33.863281 83.167969 C 33.667969 83.167969 33.46875 83.195312 33.25 83.25 C 33.355469 82.855469 33.363281 82.511719 33.28125 82.214844 C 33.582031 82.007812 33.871094 81.785156 34.105469 81.597656 C 34.386719 81.863281 34.632812 82.105469 34.914062 82.398438 " fill-opacity="1" fill-rule="nonzero"/><path fill="#100f0d" d="M 32.296875 82.820312 C 32.179688 82.882812 32.070312 82.933594 31.960938 82.976562 C 31.9375 83.273438 31.890625 83.628906 31.8125 84.003906 C 31.996094 83.671875 32.230469 83.195312 32.296875 82.820312 Z M 33.519531 84.53125 C 33.566406 84.421875 33.621094 84.3125 33.679688 84.199219 C 33.300781 84.257812 32.847656 84.484375 32.484375 84.675781 C 32.792969 84.613281 33.136719 84.5625 33.519531 84.53125 Z M 33.859375 83.804688 C 34.011719 83.804688 34.164062 83.835938 34.28125 83.90625 C 34.09375 84.210938 33.902344 84.550781 33.785156 84.890625 C 32.207031 84.976562 31.195312 85.425781 30.601562 85.910156 L 30.566406 85.882812 C 31.261719 85.046875 31.546875 83.792969 31.597656 82.71875 C 31.933594 82.597656 32.28125 82.410156 32.589844 82.226562 C 32.953125 82.847656 32.242188 84.011719 31.941406 84.550781 C 32.390625 84.300781 33.222656 83.804688 33.859375 83.804688 " fill-opacity="1" fill-rule="nonzero"/><g clip-path="url(#e6fe8d90d7)"><path fill="#100f0d" d="M 30.058594 71.25 C 31.714844 70.695312 32.832031 69.496094 33.183594 67.882812 C 32.78125 69.425781 31.589844 70.703125 30.058594 71.210938 Z M 32.90625 67.332031 C 32.742188 67.332031 32.53125 67.355469 32.457031 67.503906 C 32.035156 67.503906 30.125 69.828125 29.683594 70.933594 C 29.644531 70.972656 29.609375 70.988281 29.570312 70.988281 L 29.570312 70.890625 L 29.332031 70.792969 C 29.65625 69.980469 31.332031 67.621094 32.214844 67.195312 C 32.226562 67.1875 32.234375 67.171875 32.246094 67.160156 C 31.15625 67.746094 29.480469 69.453125 28.433594 71.390625 L 28.359375 71.519531 L 28.21875 71.574219 C 28.210938 71.574219 28.203125 71.574219 28.195312 71.574219 L 28.371094 71.582031 L 28.234375 72.050781 C 28.15625 72.324219 28.0625 72.683594 27.902344 73.480469 L 27.789062 74.050781 L 27.3125 73.710938 C 26.824219 73.363281 26.097656 73.183594 25.226562 73.183594 C 22.753906 73.183594 19.570312 74.566406 17.113281 76.707031 C 14.113281 79.3125 12.460938 82.753906 12.460938 86.394531 C 12.460938 89.761719 14.300781 91.699219 17.515625 91.699219 C 19.5625 91.699219 22.828125 91.039062 27.222656 88.125 C 24.578125 89.628906 20.800781 91.492188 17.628906 91.492188 C 14.9375 91.492188 13.800781 90.109375 13.316406 88.949219 C 12.046875 85.902344 13.796875 80.785156 17.304688 77.300781 L 17.332031 77.273438 C 20.039062 75.113281 23.003906 73.816406 25.265625 73.816406 L 25.296875 73.816406 C 26.328125 73.898438 27.042969 74.082031 27.664062 74.714844 L 27.664062 74.230469 L 28.378906 75.65625 C 28.644531 76.179688 28.777344 76.226562 28.90625 76.234375 C 28.917969 76.234375 28.921875 76.226562 28.929688 76.226562 C 28.980469 76.027344 28.988281 75.675781 28.945312 75.5625 L 28.917969 75.539062 L 28.890625 75.484375 C 28.183594 74.085938 28.613281 72.507812 28.933594 71.695312 L 29.007812 71.5 L 29.21875 71.460938 C 29.371094 71.433594 29.519531 71.402344 29.664062 71.367188 L 29.570312 71.367188 L 29.570312 70.988281 L 29.683594 70.988281 L 29.683594 70.933594 C 31.460938 70.464844 32.671875 68.964844 32.90625 67.332031 Z M 32.90625 66.960938 L 32.988281 66.960938 C 32.960938 66.953125 32.933594 66.953125 32.90625 66.953125 C 32.863281 66.953125 32.820312 66.953125 32.78125 66.960938 C 32.832031 66.960938 32.878906 66.960938 32.90625 66.960938 Z M 33.472656 66.882812 C 33.585938 67.074219 33.640625 67.238281 33.640625 67.390625 C 33.417969 69.542969 31.953125 71.339844 29.289062 71.832031 C 28.851562 72.941406 28.691406 74.25 29.230469 75.316406 C 29.40625 75.496094 29.351562 76.117188 29.289062 76.359375 C 29.25 76.488281 29.132812 76.574219 28.945312 76.613281 C 28.566406 76.613281 28.34375 76.417969 28.042969 75.820312 L 28.042969 75.882812 C 27.316406 74.589844 26.652344 74.300781 25.265625 74.195312 C 23.5 74.195312 20.632812 75.121094 17.570312 77.566406 C 12.5625 82.539062 11.167969 91.113281 17.628906 91.113281 C 22.59375 91.113281 29.242188 86.328125 30.132812 85.996094 L 30.078125 85.996094 C 30.113281 85.964844 30.207031 85.941406 30.292969 85.941406 C 30.363281 85.941406 30.4375 85.957031 30.476562 85.988281 C 30.507812 85.957031 30.542969 85.917969 30.566406 85.882812 L 30.601562 85.910156 C 30.5625 85.9375 30.523438 85.972656 30.488281 86.003906 C 30.675781 86.195312 29.683594 86.8125 29.457031 86.957031 L 29.511719 86.957031 C 29.132812 87.183594 23.328125 92.070312 17.515625 92.070312 C 14.015625 92.070312 12.078125 89.890625 12.078125 86.394531 C 12.078125 77.925781 20.445312 72.808594 25.226562 72.808594 C 26.160156 72.808594 26.960938 73.003906 27.53125 73.40625 C 27.695312 72.585938 27.792969 72.222656 27.875 71.945312 C 22.125 71.800781 15.308594 67.664062 15.308594 66.714844 L 15.363281 66.550781 L 15.476562 66.550781 C 18.53125 69.582031 24.515625 71.328125 27.167969 71.328125 C 27.554688 71.328125 27.875 71.289062 28.097656 71.214844 C 29.378906 68.839844 31.71875 66.578125 32.90625 66.578125 C 33.152344 66.578125 33.347656 66.675781 33.472656 66.882812 " fill-opacity="1" fill-rule="nonzero"/></g><path fill="#db3f4b" d="M 32.246094 67.160156 C 32.234375 67.171875 32.226562 67.1875 32.214844 67.195312 C 31.332031 67.621094 29.65625 69.980469 29.332031 70.792969 L 29.570312 70.890625 L 29.570312 71.367188 L 29.664062 71.367188 C 29.519531 71.402344 29.371094 71.433594 29.21875 71.460938 L 29.007812 71.5 L 28.933594 71.695312 C 28.613281 72.507812 28.183594 74.085938 28.890625 75.484375 L 28.917969 75.539062 L 28.945312 75.5625 C 28.988281 75.675781 28.980469 76.027344 28.929688 76.226562 C 28.921875 76.226562 28.917969 76.234375 28.90625 76.234375 C 28.777344 76.226562 28.644531 76.179688 28.378906 75.65625 L 27.664062 74.230469 L 27.664062 74.714844 C 27.042969 74.082031 26.328125 73.898438 25.296875 73.816406 L 25.265625 73.816406 C 23.003906 73.816406 20.039062 75.113281 17.332031 77.273438 L 17.304688 77.300781 C 13.796875 80.785156 12.046875 85.902344 13.316406 88.949219 C 13.800781 90.109375 14.9375 91.492188 17.628906 91.492188 C 20.800781 91.492188 24.578125 89.628906 27.222656 88.125 C 22.828125 91.039062 19.5625 91.699219 17.515625 91.699219 C 14.300781 91.699219 12.460938 89.761719 12.460938 86.394531 C 12.460938 82.753906 14.113281 79.3125 17.113281 76.707031 C 19.570312 74.566406 22.753906 73.183594 25.226562 73.183594 C 26.097656 73.183594 26.824219 73.363281 27.3125 73.710938 L 27.789062 74.050781 L 27.902344 73.480469 C 28.0625 72.683594 28.15625 72.324219 28.234375 72.050781 L 28.371094 71.582031 L 28.195312 71.574219 C 28.203125 71.574219 28.210938 71.574219 28.21875 71.574219 L 28.359375 71.519531 L 28.433594 71.390625 C 29.480469 69.453125 31.15625 67.746094 32.246094 67.160156 " fill-opacity="1" fill-rule="nonzero"/><g fill="#ffffff" fill-opacity="1"><g transform="translate(56.026001, 80.686432)"><g><path d="M 6.980469 -9.714844 C 6.820312 -10.332031 6.546875 -11.285156 6.347656 -12.019531 L 5.050781 -11.730469 C 5.238281 -10.96875 5.511719 -9.988281 5.65625 -9.339844 Z M 7.109375 -5.628906 L 6.894531 -5.585938 L 6.503906 -5.585938 C 6.722656 -6.316406 6.9375 -7.109375 7.140625 -7.902344 C 7.28125 -7.6875 7.398438 -7.46875 7.46875 -7.339844 C 8.1875 -7.84375 8.792969 -8.519531 9.296875 -9.296875 L 9.296875 -8.59375 L 10.378906 -8.59375 L 10.378906 -7.914062 L 8.390625 -7.914062 L 8.390625 -6.980469 L 13.671875 -6.980469 L 13.671875 -7.914062 L 11.832031 -7.914062 L 11.832031 -8.59375 L 13.355469 -8.59375 L 13.355469 -9.527344 L 9.441406 -9.527344 C 9.554688 -9.730469 9.671875 -9.929688 9.773438 -10.148438 L 13.789062 -10.148438 L 13.789062 -11.242188 L 10.234375 -11.242188 C 10.320312 -11.484375 10.390625 -11.730469 10.464844 -11.972656 L 9.109375 -12.234375 C 9.023438 -11.902344 8.910156 -11.558594 8.78125 -11.242188 L 7.269531 -11.242188 L 7.269531 -10.148438 L 8.234375 -10.148438 C 7.914062 -9.644531 7.527344 -9.210938 7.109375 -8.835938 L 4.722656 -8.835938 L 4.722656 -7.46875 L 5.757812 -7.46875 C 5.527344 -6.519531 5.253906 -5.527344 4.996094 -4.75 C 4.921875 -5.484375 4.664062 -6.375 3.972656 -7.3125 C 4.375 -8.460938 4.820312 -9.945312 5.179688 -11.140625 L 4.21875 -11.671875 L 4.015625 -11.628906 L 0.964844 -11.628906 L 0.964844 1.207031 L 2.316406 1.207031 L 2.316406 -10.105469 L 3.511719 -10.105469 C 3.28125 -9.183594 3.007812 -8.046875 2.71875 -7.152344 C 3.527344 -6.089844 3.714844 -5.125 3.714844 -4.417969 C 3.714844 -3.988281 3.65625 -3.613281 3.46875 -3.484375 C 3.367188 -3.398438 3.222656 -3.367188 3.078125 -3.367188 C 2.921875 -3.351562 2.71875 -3.351562 2.460938 -3.382812 C 2.675781 -3.007812 2.792969 -2.476562 2.804688 -2.117188 C 3.09375 -2.101562 3.425781 -2.101562 3.671875 -2.144531 C 3.957031 -2.171875 4.21875 -2.273438 4.417969 -2.433594 C 4.835938 -2.75 5.023438 -3.382812 5.023438 -4.261719 L 5.023438 -4.289062 L 6.160156 -4.289062 C 5.957031 -3.308594 5.683594 -2.304688 5.355469 -1.539062 C 4.851562 -1.265625 4.332031 -0.761719 3.8125 -0.160156 L 4.851562 1.324219 C 5.222656 0.519531 5.742188 -0.402344 6.058594 -0.402344 C 6.363281 -0.402344 6.792969 0.015625 7.3125 0.359375 C 8.160156 0.878906 9.066406 1.109375 10.433594 1.109375 C 11.414062 1.109375 12.910156 1.050781 13.671875 0.992188 C 13.6875 0.574219 13.917969 -0.1875 14.0625 -0.605469 C 13.011719 -0.460938 11.425781 -0.375 10.464844 -0.375 C 9.226562 -0.375 8.289062 -0.519531 7.527344 -0.992188 C 7.183594 -1.222656 6.921875 -1.425781 6.679688 -1.570312 C 7.152344 -2.675781 7.511719 -4.085938 7.730469 -5.410156 Z M 11.285156 -3.671875 L 11.84375 -4.492188 C 11.457031 -4.777344 10.75 -5.109375 10.148438 -5.398438 L 9.542969 -4.621094 C 10.058594 -4.347656 10.695312 -3.929688 11.097656 -3.640625 C 10.464844 -3.539062 9.886719 -3.453125 9.382812 -3.398438 C 9.398438 -3.757812 9.414062 -4.101562 9.414062 -4.402344 L 9.414062 -5.484375 L 11.917969 -5.484375 L 11.917969 -3.757812 Z M 13.371094 -6.449219 L 8.046875 -6.449219 L 8.046875 -4.433594 C 8.046875 -3.570312 8.03125 -2.488281 7.597656 -1.65625 C 7.914062 -1.511719 8.550781 -1.09375 8.78125 -0.863281 C 9.109375 -1.453125 9.269531 -2.257812 9.355469 -3.050781 L 9.65625 -2.144531 C 10.363281 -2.332031 11.109375 -2.53125 11.917969 -2.761719 L 11.917969 -2.042969 C 11.917969 -1.914062 11.859375 -1.871094 11.714844 -1.855469 C 11.585938 -1.855469 11.097656 -1.855469 10.679688 -1.886719 C 10.824219 -1.582031 10.996094 -1.164062 11.066406 -0.835938 C 11.859375 -0.835938 12.449219 -0.835938 12.839844 -1.007812 C 13.242188 -1.195312 13.371094 -1.4375 13.371094 -2.058594 Z M 13.371094 -6.449219 "/></g></g></g><g fill="#ffffff" fill-opacity="1"><g transform="translate(70.416591, 80.686432)"><g><path d="M 6.289062 -8.851562 L 6.289062 -8.175781 L 4.675781 -8.175781 L 5.800781 -9.097656 C 5.597656 -9.371094 5.238281 -9.773438 4.878906 -10.132812 L 6.980469 -10.132812 C 6.835938 -10.003906 6.691406 -9.875 6.535156 -9.757812 C 6.878906 -9.554688 7.398438 -9.140625 7.714844 -8.851562 Z M 10.492188 -6.996094 L 10.492188 -6.492188 L 8.03125 -6.492188 L 8.03125 -6.996094 Z M 10.492188 -4.691406 L 8.03125 -4.691406 L 8.03125 -5.253906 L 10.492188 -5.253906 Z M 13.832031 -11.414062 L 9.828125 -11.414062 C 9.902344 -11.585938 9.972656 -11.746094 10.046875 -11.917969 L 8.507812 -12.320312 C 8.1875 -11.542969 7.65625 -10.765625 7.039062 -10.175781 L 7.039062 -11.414062 L 3.898438 -11.414062 C 3.972656 -11.558594 4.058594 -11.714844 4.128906 -11.859375 L 2.632812 -12.320312 C 2.160156 -11.371094 1.324219 -10.433594 0.476562 -9.816406 C 0.820312 -9.527344 1.367188 -8.953125 1.613281 -8.636719 C 2.101562 -9.039062 2.589844 -9.542969 3.023438 -10.132812 L 4.117188 -10.132812 L 3.453125 -9.628906 C 3.886719 -9.183594 4.402344 -8.578125 4.648438 -8.175781 L 2.402344 -8.175781 L 2.402344 -6.996094 L 6.289062 -6.996094 L 6.289062 -6.492188 L 0.675781 -6.492188 L 0.675781 -5.253906 L 6.289062 -5.253906 L 6.289062 -4.691406 L 2.257812 -4.691406 L 2.257812 -3.496094 L 6.289062 -3.496094 L 6.289062 -3.007812 L 1.855469 -3.007812 L 1.855469 -1.757812 L 6.289062 -1.757812 L 6.289062 -1.238281 L 0.964844 -1.238281 L 0.964844 0.0429688 L 6.289062 0.0429688 L 6.289062 1.253906 L 8.03125 1.253906 L 8.03125 0.0429688 L 13.484375 0.0429688 L 13.484375 -1.238281 L 8.03125 -1.238281 L 8.03125 -1.757812 L 12.566406 -1.757812 L 12.566406 -3.007812 L 8.03125 -3.007812 L 8.03125 -3.496094 L 12.261719 -3.496094 L 12.261719 -5.253906 L 13.746094 -5.253906 L 13.746094 -6.492188 L 12.261719 -6.492188 L 12.261719 -8.175781 L 8.03125 -8.175781 L 8.03125 -8.851562 L 7.945312 -8.851562 C 8.320312 -9.195312 8.691406 -9.644531 9.054688 -10.132812 L 10.332031 -10.132812 L 9.699219 -9.699219 C 10.132812 -9.253906 10.679688 -8.648438 10.910156 -8.246094 L 12.160156 -9.125 C 11.960938 -9.398438 11.601562 -9.785156 11.253906 -10.132812 L 13.832031 -10.132812 Z M 13.832031 -11.414062 "/></g></g></g><g fill="#ffffff" fill-opacity="1"><g transform="translate(84.807181, 80.686432)"><g><path d="M 4.390625 -6.03125 L 10.003906 -6.03125 L 10.003906 -5.441406 L 5.742188 -5.441406 L 5.742188 -3.828125 L 4.390625 -3.828125 Z M 10.003906 -3.828125 L 7.324219 -3.828125 L 7.324219 -4.5625 L 10.003906 -4.5625 Z M 8.304688 -0.519531 L 5.957031 -0.519531 L 5.957031 -1.195312 L 8.304688 -1.195312 Z M 11.65625 -3.828125 L 11.65625 -7.296875 L 2.804688 -7.296875 L 2.804688 -3.828125 L 1.410156 -3.828125 L 1.410156 1.253906 L 3.078125 1.253906 L 3.078125 -2.578125 L 11.296875 -2.578125 L 11.296875 -0.417969 C 11.296875 -0.273438 11.242188 -0.214844 11.054688 -0.214844 C 10.910156 -0.203125 10.390625 -0.203125 9.886719 -0.230469 L 9.886719 -2.117188 L 4.433594 -2.117188 L 4.433594 0.921875 L 5.957031 0.921875 L 5.957031 0.402344 L 9.886719 0.402344 L 9.886719 -0.0273438 C 10.074219 0.34375 10.246094 0.804688 10.304688 1.164062 C 11.199219 1.164062 11.875 1.164062 12.363281 0.933594 C 12.867188 0.691406 13.011719 0.300781 13.011719 -0.417969 L 13.011719 -3.828125 Z M 8.1875 -11.199219 C 8.074219 -11.570312 7.902344 -12.003906 7.773438 -12.347656 L 6 -11.945312 C 6.074219 -11.730469 6.160156 -11.457031 6.230469 -11.199219 L 0.933594 -11.199219 L 0.933594 -8.910156 L 2.589844 -8.910156 L 2.589844 -9.875 L 4.878906 -9.875 C 4.664062 -9.054688 4.03125 -8.722656 1.367188 -8.578125 C 1.65625 -8.289062 2 -7.730469 2.101562 -7.339844 C 5.46875 -7.65625 6.347656 -8.363281 6.648438 -9.875 L 7.730469 -9.875 L 7.730469 -9.238281 C 7.730469 -8.203125 7.988281 -7.613281 9.355469 -7.613281 L 11.5 -7.613281 C 12.003906 -7.613281 12.636719 -7.640625 12.910156 -7.730469 C 12.839844 -8.132812 12.824219 -8.449219 12.78125 -8.921875 C 12.519531 -8.835938 11.789062 -8.792969 11.382812 -8.792969 L 9.859375 -8.792969 C 9.46875 -8.792969 9.425781 -8.9375 9.425781 -9.226562 L 9.425781 -9.875 L 11.917969 -9.875 L 11.917969 -9.109375 L 13.644531 -9.109375 L 13.644531 -11.199219 Z M 8.1875 -11.199219 "/></g></g></g></svg>